{"title":"Gullivers Travels 2010 xvid Marleys.Ghost.BSBT","uid":6071476,"size":1471771002,"categoryP":"video","categoryS":"movies","magnet":"?xt=urn:btih:759e263f925335b3d5bc89a9a0c1de8982b76012&amp;dn=Gullivers+Travels+2010+xvid+Marleys.Ghost.BSBT&amp;tr=udp%3A%2F%2Ftracker.openbittorrent.com%3A80&amp;tr=udp%3A%2F%2Fopen.demonii.com%3A1337&amp;tr=udp%3A%2F%2Ftracker.coppersurfer.tk%3A6969&amp;tr=udp%3A%2F%2Fexodus.desync.com%3A6969","seeders":0,"leechers":0,"uploader":"hiest","files":-1,"time":1293640714,"description":"General\nComplete name : Guvllivers Travel 2010 marleys.ghost.avi\nFormat : AVI\nFormat/Info : Audio Video Interleave\nFile size : 1.37 GiB\nDuration : 1h 20mn\nOverall bit rate : 2 452 Kbps\nWriting library : VirtualDub build 30091/release\n\nVideo\nID : 0\nFormat : MPEG-4 Visual\nFormat profile : Advanced Simple-L5\nFormat settings, BVOP : Yes\nFormat settings, QPel : No\nFormat settings, GMC : No warppoints\nFormat settings, Matrix : Default (MPEG)\nMuxing mode : Packed bitstream\nCodec ID : XVID\nCodec ID/Hint : XviD\nDuration : 1h 20mn\nBit rate : 2 314 Kbps\nWidth : 720 pixels\nHeight : 384 pixels\nDisplay aspect ratio : 1.875\nFrame rate : 23.976 fps\nResolution : 8 bits\nColorimetry : 4:2:0\nScan type : Progressive\nBits/(Pixel*Frame) : 0.349\nStream size : 1.29 GiB (94%)\nWriting library : XviD 1.2.1 (UTC 2008-12-04)\n\nAudio\nID : 1\nFormat : MPEG Audio\nFormat version : Version 1\nFormat profile : Layer 3\nCodec ID : 55\nCodec ID/Hint : MP3\nDuration : 1h 20mn\nBit rate mode : Constant\nBit rate : 128 Kbps\nChannel(s) : 2 channels\nSampling rate : 48.0 KHz\nStream size : 73.3 MiB (5%)\nAlignment : Split accross interleaves\nInterleave, duration : 42 ms (1.00 video frame)\nInterleave, preload duration : 500 ms\n\n\n\n\n\n\n================================== &lt;a href=&quot;\nhttp://thepiratebay.se/user/hiest&quot; rel=&quot;nofollow&quot; target=&quot;_NEW&quot;&gt;\nhttp://thepiratebay.se/user/hiest&lt;/a&gt;\n==================================\n\n\n\n\n\nScreens:\n &lt;a href=&quot;\nhttp://sweetpic.ru/images/guvllivers.jpg&quot; rel=&quot;nofollow&quot; target=&quot;_NEW&quot;&gt;\nhttp://sweetpic.ru/images/guvllivers.jpg&lt;/a&gt;\n\n","torrent":{"xt":"urn:btih:759e263f925335b3d5bc89a9a0c1de8982b76012","amp;dn":"Gullivers+Travels+2010+xvid+Marleys.Ghost.BSBT","amp;tr":["udp%3A%2F%2Ftracker.openbittorrent.com%3A80","udp%3A%2F%2Fopen.demonii.com%3A1337","udp%3A%2F%2Ftracker.coppersurfer.tk%3A6969","udp%3A%2F%2Fexodus.desync.com%3A6969"],"infoHash":"759e263f925335b3d5bc89a9a0c1de8982b76012","infoHashBuffer":{"type":"Buffer","data":[117,158,38,63,146,83,53,179,213,188,137,169,160,193,222,137,130,183,96,18]},"announce":[],"urlList":[]}}